<svg xmlns="http://www.w3.org/2000/svg" xmlns:xlink="http://www.w3.org/1999/xlink" viewBox="0 0 75.12 35"><defs><style>.cls-1{fill:url(#linear-gradient);}.cls-2{fill:#fff;}</style><linearGradient id="linear-gradient" y1="17.5" x2="75.12" y2="17.5" gradientUnits="userSpaceOnUse"><stop offset="0" stop-color="#005a96"/><stop offset="1" stop-color="#00afdf"/></linearGradient></defs><title>blu-icon</title><g id="Layer_2" data-name="Layer 2"><g id="Layer_2-2" data-name="Layer 2"><rect class="cls-1" width="75.12" height="35"/><rect class="cls-2" x="36.34" y="21.63" width="5.31" height="1.86"/><path class="cls-2" d="M34.09,21.62A1.85,1.85,0,0,0,36,23.47V11.52H34.09Z"/><path class="cls-2" d="M32.59,12.19a1.06,1.06,0,0,0-.63-.6h0a1.36,1.36,0,0,0-.35-.07l-1.86,1.86-3.84,3.84h2.62l1.52-1.51,2.31-2.34.1-.11A1.08,1.08,0,0,0,32.59,12.19Z"/><path class="cls-2" d="M25.92,21.67v1.81h2.31a3.89,3.89,0,0,0,3.29-1.81Z"/><path class="cls-2" d="M30.37,19.36a2.42,2.42,0,0,1-.95,1.92h2.33a4.15,4.15,0,0,0,.46-1.92,4.25,4.25,0,0,0-1.79-3.47l-1.34,1.33A2.42,2.42,0,0,1,30.37,19.36Z"/><polygon class="cls-2" points="25.91 11.52 25.91 13.38 29.19 13.38 31.05 11.52 25.91 11.52"/><path class="cls-2" d="M23.67,21.63a1.85,1.85,0,0,0,1.85,1.85h0v-12H23.67Z"/><path class="cls-2" d="M49.77,11.53V22.68a3.74,3.74,0,0,0,1.72-2.17,4.23,4.23,0,0,0,.14-1.06V11.53Z"/><path class="cls-2" d="M42.6,19.49a4.23,4.23,0,0,0,.14,1.06,3.74,3.74,0,0,0,1.72,2.17V11.53H42.6Z"/><path class="cls-2" d="M47.11,21.66a4.76,4.76,0,0,1-2.26-.56v1.78a4.78,4.78,0,0,0,2.33.6A4.66,4.66,0,0,0,49.37,23V21.1A4.7,4.7,0,0,1,47.11,21.66Z"/></g></g></svg>