<?xml version="1.0" encoding="utf-8"?>
<!-- Generator: Adobe Illustrator 23.0.1, SVG Export Plug-In . SVG Version: 6.00 Build 0)  -->
<svg version="1.1" id="Layer_1" xmlns="http://www.w3.org/2000/svg" xmlns:xlink="http://www.w3.org/1999/xlink" x="0px" y="0px"
	 viewBox="0 0 75.1 35" style="enable-background:new 0 0 75.1 35;" xml:space="preserve">
<style type="text/css">
	.st0{fill:#00B2A5;}
	.st1{fill:#FFFFFF;}
	.st2{enable-background:new    ;}
</style>
<title>3dAsset 2</title>
<rect class="st0" width="75.1" height="35"/>
<g id="Symbols">
	<path id="Shape" class="st1" d="M11.6,11.5l-5.2,3v6l5.2,3l5.2-3v-6L11.6,11.5z M15.7,14.7l-4.1,2.4l-4.2-2.4l4.2-2.4L15.7,14.7z
		 M7.1,15.3l4.1,2.4v4.8l-4.2-2.4L7.1,15.3z M11.9,22.5v-4.8l4.1-2.4v4.8L11.9,22.5z"/>
</g>
<g class="st2">
	<path class="st1" d="M22.2,17h0.6c0.3,0,0.5-0.1,0.6-0.2c0.1-0.1,0.2-0.3,0.2-0.5v-0.6c0-0.2-0.1-0.4-0.2-0.5
		c-0.1-0.1-0.3-0.2-0.6-0.2h-0.6c-0.3,0-0.4,0.1-0.5,0.2c-0.1,0.1-0.2,0.3-0.2,0.5V16c0,0.2-0.1,0.3-0.3,0.3h-1
		c-0.2,0-0.3-0.1-0.3-0.3v-0.3c0-0.6,0.2-1.1,0.5-1.4c0.3-0.3,0.8-0.5,1.5-0.5h1.1c0.6,0,1.1,0.2,1.5,0.5c0.3,0.3,0.5,0.8,0.5,1.4
		v0.6c0,0.7-0.3,1.1-0.9,1.3c0.6,0.1,0.9,0.6,0.9,1.3v0.6c0,0.6-0.2,1.1-0.5,1.4c-0.3,0.3-0.8,0.5-1.5,0.5H22
		c-0.6,0-1.1-0.2-1.5-0.5c-0.3-0.3-0.5-0.8-0.5-1.4v-0.3c0-0.2,0.1-0.3,0.3-0.3h1c0.2,0,0.3,0.1,0.3,0.3v0.3c0,0.3,0.1,0.4,0.2,0.5
		c0.1,0.1,0.3,0.2,0.5,0.2h0.6c0.3,0,0.5-0.1,0.6-0.2c0.1-0.1,0.2-0.3,0.2-0.5v-0.6c0-0.2-0.1-0.4-0.2-0.5c-0.1-0.1-0.3-0.2-0.6-0.2
		h-0.6c-0.2,0-0.3-0.1-0.3-0.3v-0.7C21.9,17.1,22,17,22.2,17z"/>
	<path class="st1" d="M26.4,21.2V14c0-0.2,0.1-0.3,0.3-0.3h3c0.6,0,1.1,0.2,1.5,0.5c0.3,0.3,0.5,0.8,0.5,1.4v3.8
		c0,0.6-0.2,1.1-0.5,1.4c-0.3,0.3-0.8,0.5-1.5,0.5h-3C26.5,21.5,26.4,21.4,26.4,21.2z M28.1,20.1h1.3c0.3,0,0.4-0.1,0.5-0.2
		c0.1-0.1,0.2-0.3,0.2-0.5v-3.7c0-0.3-0.1-0.4-0.2-0.5c-0.1-0.1-0.3-0.2-0.5-0.2h-1.3c-0.1,0-0.1,0-0.1,0.1V20
		C28,20.1,28,20.1,28.1,20.1z"/>
	<path class="st1" d="M38.1,21.5h-1c-0.2,0-0.3-0.1-0.3-0.3v-6c0-0.1,0-0.1-0.1-0.1h-1.4c-0.2,0-0.3-0.1-0.3-0.3V14
		c0-0.2,0.1-0.3,0.3-0.3h4.5c0.2,0,0.3,0.1,0.3,0.3v0.8c0,0.2-0.1,0.3-0.3,0.3h-1.4c-0.1,0-0.1,0-0.1,0.1v6
		C38.4,21.4,38.3,21.5,38.1,21.5z"/>
	<path class="st1" d="M42.3,21.5h-1c-0.2,0-0.3-0.1-0.3-0.3V14c0-0.2,0.1-0.3,0.3-0.3h2.9c0.6,0,1.1,0.2,1.5,0.5
		c0.4,0.3,0.5,0.8,0.5,1.5v0.9c0,0.9-0.4,1.5-1.1,1.8v0l1.3,2.7c0.1,0.2,0,0.3-0.2,0.3h-1c-0.1,0-0.2,0-0.3,0
		c-0.1,0-0.1-0.1-0.2-0.2l-1.2-2.6h-0.8c-0.1,0-0.1,0-0.1,0.1v2.5C42.6,21.4,42.5,21.5,42.3,21.5z M42.7,17.4h1.2
		c0.3,0,0.4-0.1,0.6-0.2c0.1-0.1,0.2-0.3,0.2-0.5v-0.9c0-0.2-0.1-0.4-0.2-0.5c-0.1-0.1-0.3-0.2-0.6-0.2h-1.2c-0.1,0-0.1,0-0.1,0.1
		v2.1C42.6,17.4,42.6,17.4,42.7,17.4z"/>
	<path class="st1" d="M50.4,21.5h-1c-0.2,0-0.3-0.1-0.3-0.3v-2.6L47,14c0-0.1,0-0.1,0-0.2s0.1-0.1,0.2-0.1h1.3
		c0.1,0,0.2,0.1,0.3,0.3l1.2,2.9H50l1.2-2.9c0.1-0.2,0.2-0.3,0.3-0.3h1.3c0.1,0,0.1,0,0.2,0.1c0,0,0,0.1,0,0.2l-2.2,4.6v2.6
		C50.7,21.4,50.6,21.5,50.4,21.5z"/>
	<path class="st1" d="M59.7,21.5h-1.3c-0.6,0-1.1-0.2-1.5-0.5c-0.3-0.3-0.5-0.8-0.5-1.5v-3.8c0-0.6,0.2-1.1,0.5-1.5
		c0.3-0.3,0.8-0.5,1.5-0.5h1.3c0.6,0,1.1,0.2,1.5,0.5s0.5,0.8,0.5,1.5v3.8c0,0.6-0.2,1.1-0.5,1.5S60.3,21.5,59.7,21.5z M58.5,20.1
		h0.9c0.3,0,0.4-0.1,0.5-0.2c0.1-0.1,0.2-0.3,0.2-0.5v-3.7c0-0.3-0.1-0.4-0.2-0.5c-0.1-0.1-0.3-0.2-0.5-0.2h-0.9
		c-0.3,0-0.4,0.1-0.5,0.2c-0.1,0.1-0.2,0.3-0.2,0.5v3.7c0,0.3,0.1,0.4,0.2,0.5C58.1,20.1,58.3,20.1,58.5,20.1z"/>
	<path class="st1" d="M64.3,21.5h-1c-0.2,0-0.3-0.1-0.3-0.3V14c0-0.2,0.1-0.3,0.3-0.3h0.9c0.2,0,0.3,0.1,0.3,0.2l2.4,4.5h0V14
		c0-0.2,0.1-0.3,0.3-0.3h1c0.2,0,0.3,0.1,0.3,0.3v7.2c0,0.2-0.1,0.3-0.3,0.3h-0.9c-0.2,0-0.3-0.1-0.4-0.2l-2.4-4.5h0v4.5
		C64.6,21.4,64.5,21.5,64.3,21.5z"/>
</g>
</svg>
