<svg xmlns="http://www.w3.org/2000/svg" viewBox="0 0 75.12 35"><defs><style>.cls-1{fill:#1f4058;}.cls-2{fill:#fbb040;}</style></defs><title>Gold Icon</title><g id="Layer_2" data-name="Layer 2"><g id="Layer_2-2" data-name="Layer 2"><rect class="cls-1" width="75.12" height="35"/><path class="cls-2" d="M39.84,17.52a4.38,4.38,0,1,1-8.76,0,4.38,4.38,0,1,1,8.76,0Zm-1.44,0a2.94,2.94,0,1,0-5.86,0,2.94,2.94,0,1,0,5.86,0Z"/><path class="cls-2" d="M41.48,8.87H42.9v9.75c0,1.54,1,1.93,2,1.88v1.35a2.89,2.89,0,0,1-3.45-3.18Z"/><path class="cls-2" d="M50,22.06a4.43,4.43,0,0,1-4.38-4.58v0a4.37,4.37,0,1,0,8.74,0h0A4.41,4.41,0,0,1,50,22.06Z"/><path class="cls-2" d="M50,14.24a3.08,3.08,0,0,0-3,3.23h0a3,3,0,1,1,5.88,0v0A3.11,3.11,0,0,0,50,14.24Z"/><path class="cls-2" d="M50,13a3.63,3.63,0,0,1,3,1.46v-.05a3.79,3.79,0,0,0-3-1.43,4.38,4.38,0,0,0-4.34,4.54h0A4.39,4.39,0,0,1,50,13Z"/><path class="cls-2" d="M50,20.74a3.1,3.1,0,0,1-3-3.26v0a3,3,0,1,0,5.88,0h0A3.13,3.13,0,0,1,50,20.74Z"/><path class="cls-2" d="M49.87,10.28c2.24,0,3.05,1.73,3.05,3.3v.83A3.63,3.63,0,0,0,50,13a4.39,4.39,0,0,0-4.34,4.53,4.37,4.37,0,1,0,8.74,0V13.58A4.71,4.71,0,0,0,53,10.05a4.35,4.35,0,0,0-3.09-1.16Zm3.05,7.24a3,3,0,1,1-5.88,0v0h0a3,3,0,1,1,5.89,0v0Z"/><path class="cls-2" d="M25.23,13a4.42,4.42,0,0,0-4.38,4.57v0a4.37,4.37,0,1,1,8.74,0h0A4.4,4.4,0,0,0,25.23,13Z"/><path class="cls-2" d="M25.23,20.78a3.08,3.08,0,0,1-2.94-3.23h0a3.07,3.07,0,0,0,2.94,3.19,3.11,3.11,0,0,0,2.94-3.23v0A3.1,3.1,0,0,1,25.23,20.78Z"/><path class="cls-2" d="M25.19,22.07a3.67,3.67,0,0,0,3-1.45v.05a3.84,3.84,0,0,1-3,1.43,4.39,4.39,0,0,1-4.35-4.55h0A4.41,4.41,0,0,0,25.19,22.07Z"/><path class="cls-2" d="M25.23,14.29a3.09,3.09,0,0,0-2.94,3.26v0a3.1,3.1,0,0,1,2.94-3.27,3.14,3.14,0,0,1,2.94,3.27h0A3.12,3.12,0,0,0,25.23,14.29Z"/><path class="cls-2" d="M25.11,26.13A4.43,4.43,0,0,0,28.21,25a4.76,4.76,0,0,0,1.38-3.53V17.52a4.37,4.37,0,1,0-8.74,0,4.41,4.41,0,0,0,4.34,4.53,3.67,3.67,0,0,0,3-1.45v.83a3,3,0,0,1-3.06,3.29Zm3.06-8.62v0a3.1,3.1,0,0,1-2.94,3.23,3.08,3.08,0,0,1-2.94-3.23h0v0a3.1,3.1,0,0,1,2.94-3.27,3.14,3.14,0,0,1,2.94,3.27Z"/></g></g></svg>