<svg xmlns="http://www.w3.org/2000/svg" viewBox="0 0 21.11 16.01"><defs><style>.cls-1{fill:#4d4d4f;}</style></defs><title>cart icon</title><g id="Layer_2" data-name="Layer 2"><g id="Layer_1-2" data-name="Layer 1"><polygon class="cls-1" points="16.09 0 14.97 4.89 5.79 4.89 5.79 6.07 14.7 6.07 13.23 12.47 11.68 12.47 11.68 13.65 14.17 13.65 17.04 1.19 21.11 1.19 21.11 0 16.09 0"/><path class="cls-1" d="M7.64,9.77a3.12,3.12,0,0,0-3.08,2.7h-1L1.13,5.29,0,5.67l2.66,8h2a3.12,3.12,0,1,0,3-3.88Zm0,5.05a1.93,1.93,0,1,1,1.93-1.93A1.93,1.93,0,0,1,7.64,14.82Z"/></g></g></svg>